<svg height="512pt" viewBox="0 -4 512 512" width="512pt" xmlns="http://www.w3.org/2000/svg"><path d="m8.679688 78.101562h8.675781c4.792969 0 8.679687 3.886719 8.679687 8.679688v34.710938c0 4.792968-3.886718 8.675781-8.679687 8.675781h-8.675781c-4.792969 0-8.679688-3.882813-8.679688-8.675781v-34.710938c0-4.792969 3.886719-8.679688 8.679688-8.679688zm0 0" fill="#5e5f62"/><path d="m8.679688 147.527344h8.675781c4.792969 0 8.679687 3.882812 8.679687 8.675781v34.710937c0 4.792969-3.886718 8.679688-8.679687 8.679688h-8.675781c-4.792969 0-8.679688-3.886719-8.679688-8.679688v-34.710937c0-4.792969 3.886719-8.675781 8.679688-8.675781zm0 0" fill="#5e5f62"/><path d="m277.695312 503.320312h-225.628906c-19.167968 0-34.710937-15.539062-34.710937-34.710937v-433.898437c0-19.167969 15.542969-34.710938 34.710937-34.710938h225.628906c19.171876 0 34.710938 15.542969 34.710938 34.710938v433.898437c0 19.171875-15.539062 34.710937-34.710938 34.710937zm0 0" fill="#5e5f62"/><path d="m17.355469 69.421875h295.050781v69.425781h-295.050781zm0 0" fill="#285680"/><path d="m17.355469 364.472656h295.050781v69.425782h-295.050781zm0 0" fill="#285680"/><path d="m17.355469 138.847656h295.050781v225.625h-295.050781zm0 0" fill="#b0d3f0"/><path d="m474.824219 322.507812c-3.3125-17.289062-10.121094-33.71875-20.011719-48.285156-2.441406-3.445312-2.078125-8.140625.867188-11.167968l7.992187-7.992188c3.386719-3.386719 3.386719-8.882812 0-12.269531l-12.269531-12.269531c-3.390625-3.390626-8.882813-3.390626-12.269532 0l-7.992187 7.992187c-3.027344 2.941406-7.726563 3.308594-11.171875.867187-14.558594-9.890624-30.988281-16.699218-48.273438-20.011718-4.136718-.726563-7.171874-4.296875-7.222656-8.496094v-11.28125c0-4.792969-3.882812-8.679688-8.675781-8.679688h-17.355469c-4.792968 0-8.679687 3.886719-8.679687 8.679688v11.28125c-.039063 4.21875-3.09375 7.808594-7.253907 8.519531-17.292968 3.320313-33.722656 10.132813-48.285156 20.03125-3.445312 2.441407-8.140625 2.074219-11.167968-.867187l-7.992188-7.992188c-3.386719-3.390625-8.882812-3.390625-12.269531 0l-12.269531 12.269532c-3.390626 3.386718-3.390626 8.882812 0 12.269531l7.992187 7.992187c2.941406 3.027344 3.308594 7.722656.867187 11.167969-9.890624 14.5625-16.699218 30.988281-20.011718 48.277344-.726563 4.136719-4.296875 7.171875-8.496094 7.21875h-11.28125c-4.792969 0-8.679688 3.886719-8.679688 8.679687v17.355469c0 4.792969 3.886719 8.675781 8.679688 8.675781h11.28125c4.21875.042969 7.808594 3.097656 8.519531 7.257813 3.320313 17.289062 10.132813 33.722656 20.03125 48.28125 2.441407 3.445312 2.074219 8.144531-.867187 11.171875l-7.992188 7.992187c-3.390625 3.386719-3.390625 8.878907 0 12.269531l12.269532 12.269532c3.386718 3.390625 8.882812 3.390625 12.269531 0l7.992187-7.992188c3.027344-2.945312 7.722656-3.308594 11.167969-.867187 14.5625 9.890625 30.988281 16.699219 48.277344 20.011719 4.136719.726562 7.171875 4.296874 7.21875 8.496093v11.28125c0 4.792969 3.886719 8.675781 8.679687 8.675781h17.355469c4.792969 0 8.675781-3.882812 8.675781-8.675781v-11.28125c.042969-4.222656 3.097656-7.808593 7.257813-8.523437 17.289062-3.316406 33.722656-10.132813 48.28125-20.027344 3.445312-2.441406 8.144531-2.078125 11.171875.867188l7.992187 7.992187c3.386719 3.386719 8.878907 3.386719 12.269531 0l12.269532-12.269531c3.390625-3.390625 3.390625-8.882813 0-12.269532l-7.992188-7.992187c-2.945312-3.027344-3.308594-7.726563-.867187-11.171875 9.890625-14.558594 16.699219-30.988281 20.011719-48.273438.726562-4.136718 4.296874-7.171874 8.496093-7.222656h11.28125c4.792969 0 8.675781-3.882812 8.675781-8.675781v-17.355469c0-4.792968-3.882812-8.679687-8.675781-8.679687h-11.28125c-4.226562-.03125-7.824219-3.085938-8.539062-7.253907zm0 0" fill="#7f8c8d"/><path d="m347.117188 483.363281c-.074219-12.539062-9.03125-23.265625-21.355469-25.574219-14.96875-2.867187-29.1875-8.773437-41.785157-17.355468-4.378906-2.988282-9.5625-4.585938-14.863281-4.582032-6.828125-.027343-13.382812 2.664063-18.222656 7.480469 8.722656-8.925781 9.941406-22.769531 2.90625-33.082031-8.589844-12.597656-14.496094-26.824219-17.355469-41.800781-2.324218-12.308594-13.039062-21.25-25.566406-21.332031 12.527344-.074219 23.25-9.015626 25.574219-21.328126 2.859375-14.976562 8.765625-29.207031 17.355469-41.800781 7.046874-10.316406 5.835937-24.167969-2.898438-33.097656 4.839844 4.8125 11.398438 7.503906 18.222656 7.476563 5.300782.003906 10.480469-1.59375 14.859375-4.578126 12.601563-8.582031 26.832031-14.488281 41.808594-17.359374 12.308594-2.316407 21.246094-13.03125 21.320313-25.554688.078124 12.539062 9.035156 23.261719 21.359374 25.574219 14.96875 2.867187 29.1875 8.773437 41.78125 17.355469 4.382813 2.988281 9.5625 4.582031 14.867188 4.582031 6.828125.023437 13.382812-2.667969 18.222656-7.480469-8.726562 8.925781-9.941406 22.769531-2.90625 33.082031 8.585938 12.597657 14.492188 26.824219 17.355469 41.800781 2.324219 12.308594 13.039063 21.25 25.566406 21.328126-12.53125.078124-23.25 9.019531-25.574219 21.332031-2.859374 14.976562-8.765624 29.203125-17.355468 41.800781-7.046875 10.3125-5.835938 24.167969 2.898437 33.097656-4.839843-4.8125-11.398437-7.503906-18.222656-7.480468-5.300781-.003907-10.480469 1.59375-14.859375 4.582031-12.605469 8.582031-26.832031 14.488281-41.808594 17.355469-12.308594 2.320312-21.25 13.035156-21.324218 25.558593zm0 0" fill="#95a5a5"/><path d="m442.578125 347.117188c0 52.722656-42.738281 95.460937-95.460937 95.460937-52.71875 0-95.457032-42.738281-95.457032-95.460937 0-52.71875 42.738282-95.457032 95.457032-95.457032 52.722656 0 95.460937 42.738282 95.460937 95.457032zm0 0" fill="#4482c3"/><path d="m164.882812 34.710938c0 4.792968-3.886718 8.679687-8.679687 8.679687s-8.675781-3.886719-8.675781-8.679687c0-4.792969 3.882812-8.675782 8.675781-8.675782s8.679687 3.882813 8.679687 8.675782zm0 0" fill="#2c2f38"/><path d="m52.066406 104.136719c0 4.792969-3.882812 8.675781-8.675781 8.675781s-8.679687-3.882812-8.679687-8.675781 3.886718-8.679688 8.679687-8.679688 8.675781 3.886719 8.675781 8.679688zm0 0" fill="#e64c3c"/><path d="m86.78125 104.136719c0 4.792969-3.886719 8.675781-8.679688 8.675781-4.792968 0-8.679687-3.882812-8.679687-8.675781s3.886719-8.679688 8.679687-8.679688c4.792969 0 8.679688 3.886719 8.679688 8.679688zm0 0" fill="#f0c419"/><path d="m121.492188 104.136719c0 4.792969-3.886719 8.675781-8.679688 8.675781s-8.675781-3.882812-8.675781-8.675781 3.882812-8.679688 8.675781-8.679688 8.679688 3.886719 8.679688 8.679688zm0 0" fill="#4fba6f"/><path d="m190.914062 468.609375c0 19.171875-15.539062 34.710937-34.710937 34.710937s-34.710937-15.539062-34.710937-34.710937 15.539062-34.710937 34.710937-34.710937 34.710937 15.539062 34.710937 34.710937zm0 0" fill="#2c2f38"/><path d="m364.472656 347.117188c0 9.585937-7.769531 17.355468-17.355468 17.355468-9.582032 0-17.355469-7.769531-17.355469-17.355468 0-9.582032 7.773437-17.355469 17.355469-17.355469 9.585937 0 17.355468 7.773437 17.355468 17.355469zm0 0" fill="#5e5f62"/><g fill="#285680"><path d="m121.492188 208.269531c-4.792969 0-8.679688-3.882812-8.679688-8.675781v-17.355469c0-4.792969 3.886719-8.679687 8.679688-8.679687 4.792968 0 8.675781 3.886718 8.675781 8.679687v17.355469c0 4.792969-3.882813 8.675781-8.675781 8.675781zm0 0"/><path d="m84.671875 223.527344c-2.300781 0-4.507813-.914063-6.136719-2.542969l-12.269531-12.277344c-2.191406-2.195312-3.046875-5.390625-2.246094-8.386719.804688-2.996093 3.144531-5.332031 6.140625-6.136718 2.996094-.800782 6.191406.058594 8.382813 2.25l12.273437 12.28125c2.480469 2.480468 3.222656 6.214844 1.878906 9.457031-1.347656 3.246094-4.511718 5.359375-8.023437 5.355469zm0 0"/><path d="m69.421875 260.339844h-17.355469c-4.792968 0-8.675781-3.886719-8.675781-8.679688 0-4.792968 3.882813-8.675781 8.675781-8.675781h17.355469c4.792969 0 8.679687 3.882813 8.679687 8.675781 0 4.792969-3.886718 8.679688-8.679687 8.679688zm0 0"/><path d="m72.398438 309.429688c-3.507813 0-6.671876-2.113282-8.015626-5.355469-1.339843-3.242188-.597656-6.976563 1.882813-9.457031l12.269531-12.28125c3.390625-3.390626 8.882813-3.390626 12.277344-.003907 3.390625 3.390625 3.390625 8.886719.003906 12.277344l-12.273437 12.277344c-1.628907 1.628906-3.839844 2.546875-6.144531 2.542969zm0 0"/><path d="m121.492188 329.761719c-4.792969 0-8.679688-3.882813-8.679688-8.675781v-17.355469c0-4.792969 3.886719-8.679688 8.679688-8.679688 4.792968 0 8.675781 3.886719 8.675781 8.679688v17.355469c0 4.792968-3.882813 8.675781-8.675781 8.675781zm0 0"/><path d="m170.582031 309.429688c-2.304687.003906-4.515625-.914063-6.144531-2.542969l-12.269531-12.277344c-3.386719-3.390625-3.386719-8.886719.003906-12.277344 3.390625-3.386719 8.886719-3.386719 12.277344.003907l12.269531 12.28125c2.480469 2.480468 3.222656 6.214843 1.878906 9.457031-1.34375 3.242187-4.503906 5.355469-8.015625 5.355469zm0 0"/><path d="m190.914062 260.339844h-17.355468c-4.792969 0-8.675782-3.886719-8.675782-8.679688 0-4.792968 3.882813-8.675781 8.675782-8.675781h17.355468c4.792969 0 8.679688 3.882813 8.679688 8.675781 0 4.792969-3.886719 8.679688-8.679688 8.679688zm0 0"/><path d="m158.3125 223.527344c-3.511719.003906-6.679688-2.109375-8.023438-5.355469-1.34375-3.242187-.601562-6.976563 1.878907-9.457031l12.269531-12.28125c3.390625-3.390625 8.886719-3.390625 12.277344-.003906 3.390625 3.390624 3.390625 8.882812.003906 12.277343l-12.269531 12.277344c-1.628907 1.628906-3.835938 2.542969-6.136719 2.542969zm0 0"/></g><path d="m433.898438 78.101562c-4.792969 0-8.679688-3.886718-8.679688-8.679687v-17.355469c0-4.792968 3.886719-8.675781 8.679688-8.675781 4.792968 0 8.679687 3.882813 8.679687 8.675781v17.355469c0 4.792969-3.886719 8.679687-8.679687 8.679687zm0 0" fill="#4482c3"/><path d="m397.078125 93.359375c-2.300781-.003906-4.507813-.917969-6.136719-2.542969l-12.269531-12.28125c-3.386719-3.390625-3.386719-8.886718.003906-12.273437 3.390625-3.390625 8.886719-3.386719 12.273438.003906l12.273437 12.277344c2.480469 2.484375 3.222656 6.21875 1.878906 9.460937-1.347656 3.242188-4.511718 5.355469-8.023437 5.355469zm0 0" fill="#4482c3"/><path d="m381.832031 130.167969h-17.359375c-4.789062 0-8.675781-3.882813-8.675781-8.675781 0-4.792969 3.886719-8.679688 8.675781-8.679688h17.359375c4.792969 0 8.675781 3.886719 8.675781 8.679688 0 4.792968-3.882812 8.675781-8.675781 8.675781zm0 0" fill="#4482c3"/><path d="m384.808594 179.261719c-3.511719 0-6.675782-2.117188-8.015625-5.359375-1.34375-3.242188-.601563-6.972656 1.878906-9.453125l12.269531-12.28125c3.390625-3.390625 8.886719-3.394531 12.277344-.003907 3.390625 3.386719 3.390625 8.882813.003906 12.273438l-12.273437 12.28125c-1.628907 1.628906-3.835938 2.542969-6.140625 2.542969zm0 0" fill="#4482c3"/><path d="m433.898438 199.59375c-4.792969 0-8.679688-3.886719-8.679688-8.679688v-17.355468c0-4.792969 3.886719-8.675782 8.679688-8.675782 4.792968 0 8.679687 3.882813 8.679687 8.675782v17.355468c0 4.792969-3.886719 8.679688-8.679687 8.679688zm0 0" fill="#4482c3"/><path d="m482.988281 179.261719c-2.304687 0-4.511719-.914063-6.144531-2.542969l-12.269531-12.28125c-3.386719-3.390625-3.386719-8.886719.003906-12.273438 3.390625-3.390624 8.886719-3.386718 12.277344.003907l12.269531 12.28125c2.480469 2.480469 3.222656 6.210937 1.878906 9.453125-1.339844 3.242187-4.503906 5.359375-8.015625 5.359375zm0 0" fill="#4482c3"/><path d="m503.320312 130.167969h-17.355468c-4.792969 0-8.675782-3.882813-8.675782-8.675781 0-4.792969 3.882813-8.679688 8.675782-8.679688h17.355468c4.792969 0 8.679688 3.886719 8.679688 8.679688 0 4.792968-3.886719 8.675781-8.679688 8.675781zm0 0" fill="#4482c3"/><path d="m470.71875 93.359375c-3.511719 0-6.675781-2.113281-8.023438-5.355469-1.34375-3.242187-.601562-6.976562 1.878907-9.460937l12.269531-12.277344c3.390625-3.390625 8.886719-3.394531 12.277344-.003906 3.390625 3.386719 3.390625 8.882812.003906 12.273437l-12.269531 12.28125c-1.628907 1.625-3.835938 2.539063-6.136719 2.542969zm0 0" fill="#4482c3"/><path d="m485.964844 121.492188c0 28.753906-23.308594 52.066406-52.066406 52.066406-28.757813 0-52.066407-23.3125-52.066407-52.066406 0-28.757813 23.308594-52.070313 52.066407-52.070313 28.757812 0 52.066406 23.3125 52.066406 52.070313zm0 0" fill="#b0d3f0"/><path d="m451.253906 121.492188c0 9.585937-7.769531 17.355468-17.355468 17.355468-9.585938 0-17.355469-7.769531-17.355469-17.355468 0-9.585938 7.769531-17.355469 17.355469-17.355469 9.585937 0 17.355468 7.769531 17.355468 17.355469zm0 0" fill="#90bae1"/><path d="m173.558594 251.660156c0 28.757813-23.3125 52.070313-52.066406 52.070313-28.757813 0-52.070313-23.3125-52.070313-52.070313 0-28.753906 23.3125-52.066406 52.070313-52.066406 28.753906 0 52.066406 23.3125 52.066406 52.066406zm0 0" fill="#4482c3"/><path d="m138.847656 251.660156c0 9.585938-7.769531 17.355469-17.355468 17.355469-9.585938 0-17.355469-7.769531-17.355469-17.355469 0-9.585937 7.769531-17.355468 17.355469-17.355468 9.585937 0 17.355468 7.769531 17.355468 17.355468zm0 0" fill="#285680"/></svg>